<svg width="4" height="4" viewBox="0 0 4 4" fill="none" xmlns="http://www.w3.org/2000/svg">
<path d="M3.31919 2.73593C3.008 3.04711 2.63198 3.2027 2.19113 3.2027C1.97071 3.2027 1.76325 3.15732 1.56875 3.07952C1.37426 2.99525 1.2057 2.87855 1.06308 2.73593C0.920448 2.5933 0.80376 2.41826 0.725963 2.23025C0.641683 2.03576 0.602783 1.82831 0.602783 1.60789C0.602783 1.38747 0.648166 1.18001 0.725963 0.985522C0.810243 0.791032 0.926937 0.622475 1.06956 0.473366C1.21219 0.324258 1.38723 0.214047 1.58172 0.129768C1.77621 0.0454897 1.98368 0.0065918 2.2041 0.0065918C2.41804 0.0065918 2.6255 0.0519727 2.81999 0.129768C3.01448 0.214047 3.18304 0.330741 3.32567 0.473366C3.47478 0.615992 3.58499 0.791032 3.67575 0.985522C3.76003 1.18001 3.80542 1.38747 3.80542 1.60789C3.79894 2.04873 3.63686 2.42474 3.31919 2.73593ZM2.21058 0.265911C2.02906 0.265911 1.8605 0.298326 1.7049 0.369639C1.54931 0.440952 1.40668 0.531713 1.28999 0.65489C1.17329 0.778067 1.07604 0.920692 1.01121 1.08277C0.939896 1.24484 0.907488 1.41988 0.907488 1.60789C0.907488 1.78941 0.939896 1.96445 1.01121 2.12653C1.07604 2.2886 1.17329 2.43123 1.28999 2.54792C1.40668 2.66461 1.54931 2.76186 1.7049 2.83317C1.8605 2.90448 2.03554 2.9369 2.21058 2.9369C2.38562 2.9369 2.55419 2.898 2.70978 2.83317C2.87186 2.76186 3.008 2.66461 3.1247 2.54144C3.24139 2.41826 3.33864 2.28212 3.40995 2.12004C3.48127 1.95797 3.51367 1.78941 3.51367 1.60141C3.51367 1.4134 3.48127 1.24484 3.40995 1.08277C3.34512 0.920692 3.24787 0.778067 3.13118 0.661373C3.01448 0.538196 2.87185 0.447434 2.71626 0.376122C2.56067 0.304809 2.39211 0.265911 2.21058 0.265911ZM1.52986 2.48957V0.661373H2.15224C2.43749 0.661373 2.64495 0.713237 2.76165 0.810481C2.88482 0.907726 2.94317 1.03739 2.94317 1.19298C2.94317 1.29671 2.91075 1.39395 2.84592 1.48471C2.78109 1.57547 2.69033 1.6403 2.56715 1.67272L2.98855 2.45716L2.67088 2.50254L2.26245 1.7181H1.83456V2.48957H1.52986ZM2.17816 1.4523C2.48935 1.4523 2.64495 1.36153 2.64495 1.18649C2.64495 1.01145 2.48287 0.920692 2.15872 0.920692H1.84105V1.4523H2.17816Z" fill="#FE3B1F"/>
</svg>
